<?xml version="1.0" encoding="UTF-8" standalone="no"?>
<!DOCTYPE svg PUBLIC "-//W3C//DTD SVG 1.1//EN"
 "http://www.w3.org/Graphics/SVG/1.1/DTD/svg11.dtd">
<!-- Generated by graphviz version 5.0.0 (20220707.1540)
 -->
<!-- Title: dependencies Pages: 1 -->
<svg width="3257pt" height="247pt"
 viewBox="0.00 0.00 3257.00 246.80" xmlns="http://www.w3.org/2000/svg" xmlns:xlink="http://www.w3.org/1999/xlink">
<g id="graph0" class="graph" transform="scale(1 1) rotate(0) translate(4 242.8)">
<title>dependencies</title>
<polygon fill="white" stroke="transparent" points="-4,4 -4,-242.8 3253,-242.8 3253,4 -4,4"/>
<text text-anchor="middle" x="1624.5" y="-8.2" font-family="sans-serif" font-size="14.00">dependencies</text>
<g id="clust1" class="cluster">
<title>cluster_AppModule</title>
<polygon fill="none" stroke="black" stroke-dasharray="1,5" points="8,-32.8 8,-230.8 3241,-230.8 3241,-32.8 8,-32.8"/>
</g>
<g id="clust22" class="cluster">
<title>cluster_AppModule_imports</title>
<polygon fill="none" stroke="black" points="3089,-40.8 3089,-92.8 3233,-92.8 3233,-40.8 3089,-40.8"/>
</g>
<g id="clust2" class="cluster">
<title>cluster_AppModule_declarations</title>
<polygon fill="none" stroke="black" points="16,-40.8 16,-92.8 3081,-92.8 3081,-40.8 16,-40.8"/>
</g>
<g id="clust24" class="cluster">
<title>cluster_AppModule_bootstrap</title>
<polygon fill="none" stroke="black" points="1495,-170.8 1495,-222.8 1619,-222.8 1619,-170.8 1495,-170.8"/>
</g>
<!-- AppComponent -->
<g id="node1" class="node">
<title>AppComponent</title>
<polygon fill="#ffffb3" stroke="black" points="3072.94,-84.8 2967.06,-84.8 2967.06,-48.8 3072.94,-48.8 3072.94,-84.8"/>
<text text-anchor="middle" x="3020" y="-62.6" font-family="Times,serif" font-size="14.00">AppComponent</text>
</g>
<!-- AppModule -->
<g id="node20" class="node">
<title>AppModule</title>
<polygon fill="#8dd3c7" stroke="black" points="1598.66,-149.8 1595.66,-153.8 1574.66,-153.8 1571.66,-149.8 1515.34,-149.8 1515.34,-113.8 1598.66,-113.8 1598.66,-149.8"/>
<text text-anchor="middle" x="1557" y="-127.6" font-family="Times,serif" font-size="14.00">AppModule</text>
</g>
<!-- AppComponent&#45;&gt;AppModule -->
<g id="edge1" class="edge">
<title>AppComponent&#45;&gt;AppModule</title>
<path fill="none" stroke="black" d="M3020,-84.81C3020,-107.29 3020,-142.8 3020,-142.8 3020,-142.8 1608.82,-142.8 1608.82,-142.8"/>
<polygon fill="black" stroke="black" points="1608.82,-139.3 1598.82,-142.8 1608.82,-146.3 1608.82,-139.3"/>
</g>
<!-- BuscaCategoriaComponent -->
<g id="node2" class="node">
<title>BuscaCategoriaComponent</title>
<polygon fill="#ffffb3" stroke="black" points="2948.97,-84.8 2779.03,-84.8 2779.03,-48.8 2948.97,-48.8 2948.97,-84.8"/>
<text text-anchor="middle" x="2864" y="-62.6" font-family="Times,serif" font-size="14.00">BuscaCategoriaComponent</text>
</g>
<!-- BuscaCategoriaComponent&#45;&gt;AppModule -->
<g id="edge2" class="edge">
<title>BuscaCategoriaComponent&#45;&gt;AppModule</title>
<path fill="none" stroke="black" d="M2864,-84.84C2864,-106.46 2864,-139.8 2864,-139.8 2864,-139.8 1609.01,-139.8 1609.01,-139.8"/>
<polygon fill="black" stroke="black" points="1609.01,-136.3 1599.01,-139.8 1609.01,-143.3 1609.01,-136.3"/>
</g>
<!-- BuscaMarcaComponent -->
<g id="node3" class="node">
<title>BuscaMarcaComponent</title>
<polygon fill="#ffffb3" stroke="black" points="2760.8,-84.8 2609.2,-84.8 2609.2,-48.8 2760.8,-48.8 2760.8,-84.8"/>
<text text-anchor="middle" x="2685" y="-62.6" font-family="Times,serif" font-size="14.00">BuscaMarcaComponent</text>
</g>
<!-- BuscaMarcaComponent&#45;&gt;AppModule -->
<g id="edge3" class="edge">
<title>BuscaMarcaComponent&#45;&gt;AppModule</title>
<path fill="none" stroke="black" d="M2685,-84.93C2685,-105.37 2685,-135.8 2685,-135.8 2685,-135.8 1608.82,-135.8 1608.82,-135.8"/>
<polygon fill="black" stroke="black" points="1608.82,-132.3 1598.82,-135.8 1608.82,-139.3 1608.82,-132.3"/>
</g>
<!-- BuscaNomeComponent -->
<g id="node4" class="node">
<title>BuscaNomeComponent</title>
<polygon fill="#ffffb3" stroke="black" points="2590.76,-84.8 2441.24,-84.8 2441.24,-48.8 2590.76,-48.8 2590.76,-84.8"/>
<text text-anchor="middle" x="2516" y="-62.6" font-family="Times,serif" font-size="14.00">BuscaNomeComponent</text>
</g>
<!-- BuscaNomeComponent&#45;&gt;AppModule -->
<g id="edge4" class="edge">
<title>BuscaNomeComponent&#45;&gt;AppModule</title>
<path fill="none" stroke="black" d="M2516,-84.91C2516,-104.14 2516,-131.8 2516,-131.8 2516,-131.8 1608.82,-131.8 1608.82,-131.8"/>
<polygon fill="black" stroke="black" points="1608.82,-128.3 1598.82,-131.8 1608.82,-135.3 1608.82,-128.3"/>
</g>
<!-- CabecalhoComponent -->
<g id="node5" class="node">
<title>CabecalhoComponent</title>
<polygon fill="#ffffb3" stroke="black" points="2423.41,-84.8 2282.59,-84.8 2282.59,-48.8 2423.41,-48.8 2423.41,-84.8"/>
<text text-anchor="middle" x="2353" y="-62.6" font-family="Times,serif" font-size="14.00">CabecalhoComponent</text>
</g>
<!-- CabecalhoComponent&#45;&gt;AppModule -->
<g id="edge5" class="edge">
<title>CabecalhoComponent&#45;&gt;AppModule</title>
<path fill="none" stroke="black" d="M2353,-85.07C2353,-103.36 2353,-128.8 2353,-128.8 2353,-128.8 1608.68,-128.8 1608.68,-128.8"/>
<polygon fill="black" stroke="black" points="1608.68,-125.3 1598.68,-128.8 1608.68,-132.3 1608.68,-125.3"/>
</g>
<!-- CadastrarUsuarioComponent -->
<g id="node6" class="node">
<title>CadastrarUsuarioComponent</title>
<polygon fill="#ffffb3" stroke="black" points="2264.8,-84.8 2085.2,-84.8 2085.2,-48.8 2264.8,-48.8 2264.8,-84.8"/>
<text text-anchor="middle" x="2175" y="-62.6" font-family="Times,serif" font-size="14.00">CadastrarUsuarioComponent</text>
</g>
<!-- CadastrarUsuarioComponent&#45;&gt;AppModule -->
<g id="edge6" class="edge">
<title>CadastrarUsuarioComponent&#45;&gt;AppModule</title>
<path fill="none" stroke="black" d="M2175,-84.83C2175,-101.86 2175,-124.8 2175,-124.8 2175,-124.8 1608.99,-124.8 1608.99,-124.8"/>
<polygon fill="black" stroke="black" points="1608.99,-121.3 1598.99,-124.8 1608.99,-128.3 1608.99,-121.3"/>
</g>
<!-- CadastroProdutoComponent -->
<g id="node7" class="node">
<title>CadastroProdutoComponent</title>
<polygon fill="#ffffb3" stroke="black" points="2067.94,-84.8 1892.06,-84.8 1892.06,-48.8 2067.94,-48.8 2067.94,-84.8"/>
<text text-anchor="middle" x="1980" y="-62.6" font-family="Times,serif" font-size="14.00">CadastroProdutoComponent</text>
</g>
<!-- CadastroProdutoComponent&#45;&gt;AppModule -->
<g id="edge7" class="edge">
<title>CadastroProdutoComponent&#45;&gt;AppModule</title>
<path fill="none" stroke="black" d="M1980,-84.81C1980,-100.85 1980,-121.8 1980,-121.8 1980,-121.8 1608.72,-121.8 1608.72,-121.8"/>
<polygon fill="black" stroke="black" points="1608.72,-118.3 1598.72,-121.8 1608.72,-125.3 1608.72,-118.3"/>
</g>
<!-- CarrinhoComponent -->
<g id="node8" class="node">
<title>CarrinhoComponent</title>
<polygon fill="#ffffb3" stroke="black" points="1874.6,-84.8 1743.4,-84.8 1743.4,-48.8 1874.6,-48.8 1874.6,-84.8"/>
<text text-anchor="middle" x="1809" y="-62.6" font-family="Times,serif" font-size="14.00">CarrinhoComponent</text>
</g>
<!-- CarrinhoComponent&#45;&gt;AppModule -->
<g id="edge8" class="edge">
<title>CarrinhoComponent&#45;&gt;AppModule</title>
<path fill="none" stroke="black" d="M1809,-84.92C1809,-99.58 1809,-117.8 1809,-117.8 1809,-117.8 1608.9,-117.8 1608.9,-117.8"/>
<polygon fill="black" stroke="black" points="1608.9,-114.3 1598.9,-117.8 1608.9,-121.3 1608.9,-114.3"/>
</g>
<!-- EditarProdutoComponent -->
<g id="node9" class="node">
<title>EditarProdutoComponent</title>
<polygon fill="#ffffb3" stroke="black" points="1725.88,-84.8 1566.12,-84.8 1566.12,-48.8 1725.88,-48.8 1725.88,-84.8"/>
<text text-anchor="middle" x="1646" y="-62.6" font-family="Times,serif" font-size="14.00">EditarProdutoComponent</text>
</g>
<!-- EditarProdutoComponent&#45;&gt;AppModule -->
<g id="edge9" class="edge">
<title>EditarProdutoComponent&#45;&gt;AppModule</title>
<path fill="none" stroke="black" d="M1582.45,-84.91C1582.45,-84.91 1582.45,-103.79 1582.45,-103.79"/>
<polygon fill="black" stroke="black" points="1578.95,-103.79 1582.45,-113.79 1585.95,-103.79 1578.95,-103.79"/>
</g>
<!-- EditarUsuarioComponent -->
<g id="node10" class="node">
<title>EditarUsuarioComponent</title>
<polygon fill="#ffffb3" stroke="black" points="1547.86,-84.8 1388.14,-84.8 1388.14,-48.8 1547.86,-48.8 1547.86,-84.8"/>
<text text-anchor="middle" x="1468" y="-62.6" font-family="Times,serif" font-size="14.00">EditarUsuarioComponent</text>
</g>
<!-- EditarUsuarioComponent&#45;&gt;AppModule -->
<g id="edge10" class="edge">
<title>EditarUsuarioComponent&#45;&gt;AppModule</title>
<path fill="none" stroke="black" d="M1531.55,-84.91C1531.55,-84.91 1531.55,-103.79 1531.55,-103.79"/>
<polygon fill="black" stroke="black" points="1528.05,-103.79 1531.55,-113.79 1535.05,-103.79 1528.05,-103.79"/>
</g>
<!-- FaleConoscoComponent -->
<g id="node11" class="node">
<title>FaleConoscoComponent</title>
<polygon fill="#ffffb3" stroke="black" points="1370.44,-84.8 1215.56,-84.8 1215.56,-48.8 1370.44,-48.8 1370.44,-84.8"/>
<text text-anchor="middle" x="1293" y="-62.6" font-family="Times,serif" font-size="14.00">FaleConoscoComponent</text>
</g>
<!-- FaleConoscoComponent&#45;&gt;AppModule -->
<g id="edge11" class="edge">
<title>FaleConoscoComponent&#45;&gt;AppModule</title>
<path fill="none" stroke="black" d="M1293,-84.92C1293,-99.58 1293,-117.8 1293,-117.8 1293,-117.8 1505.17,-117.8 1505.17,-117.8"/>
<polygon fill="black" stroke="black" points="1505.17,-121.3 1515.17,-117.8 1505.17,-114.3 1505.17,-121.3"/>
</g>
<!-- GerenciarProdutosComponent -->
<g id="node12" class="node">
<title>GerenciarProdutosComponent</title>
<polygon fill="#ffffb3" stroke="black" points="1198.3,-84.8 1011.7,-84.8 1011.7,-48.8 1198.3,-48.8 1198.3,-84.8"/>
<text text-anchor="middle" x="1105" y="-62.6" font-family="Times,serif" font-size="14.00">GerenciarProdutosComponent</text>
</g>
<!-- GerenciarProdutosComponent&#45;&gt;AppModule -->
<g id="edge12" class="edge">
<title>GerenciarProdutosComponent&#45;&gt;AppModule</title>
<path fill="none" stroke="black" d="M1105,-84.81C1105,-100.85 1105,-121.8 1105,-121.8 1105,-121.8 1505.29,-121.8 1505.29,-121.8"/>
<polygon fill="black" stroke="black" points="1505.29,-125.3 1515.29,-121.8 1505.29,-118.3 1505.29,-125.3"/>
</g>
<!-- InicioComponent -->
<g id="node13" class="node">
<title>InicioComponent</title>
<polygon fill="#ffffb3" stroke="black" points="993.99,-84.8 880.01,-84.8 880.01,-48.8 993.99,-48.8 993.99,-84.8"/>
<text text-anchor="middle" x="937" y="-62.6" font-family="Times,serif" font-size="14.00">InicioComponent</text>
</g>
<!-- InicioComponent&#45;&gt;AppModule -->
<g id="edge13" class="edge">
<title>InicioComponent&#45;&gt;AppModule</title>
<path fill="none" stroke="black" d="M937,-84.83C937,-101.86 937,-124.8 937,-124.8 937,-124.8 1504.87,-124.8 1504.87,-124.8"/>
<polygon fill="black" stroke="black" points="1504.87,-128.3 1514.87,-124.8 1504.87,-121.3 1504.87,-128.3"/>
</g>
<!-- LoginComponent -->
<g id="node14" class="node">
<title>LoginComponent</title>
<polygon fill="#ffffb3" stroke="black" points="862.27,-84.8 747.73,-84.8 747.73,-48.8 862.27,-48.8 862.27,-84.8"/>
<text text-anchor="middle" x="805" y="-62.6" font-family="Times,serif" font-size="14.00">LoginComponent</text>
</g>
<!-- LoginComponent&#45;&gt;AppModule -->
<g id="edge14" class="edge">
<title>LoginComponent&#45;&gt;AppModule</title>
<path fill="none" stroke="black" d="M805,-85.07C805,-103.36 805,-128.8 805,-128.8 805,-128.8 1505.23,-128.8 1505.23,-128.8"/>
<polygon fill="black" stroke="black" points="1505.23,-132.3 1515.23,-128.8 1505.23,-125.3 1505.23,-132.3"/>
</g>
<!-- MenuComponent -->
<g id="node15" class="node">
<title>MenuComponent</title>
<polygon fill="#ffffb3" stroke="black" points="729.99,-84.8 616.01,-84.8 616.01,-48.8 729.99,-48.8 729.99,-84.8"/>
<text text-anchor="middle" x="673" y="-62.6" font-family="Times,serif" font-size="14.00">MenuComponent</text>
</g>
<!-- MenuComponent&#45;&gt;AppModule -->
<g id="edge15" class="edge">
<title>MenuComponent&#45;&gt;AppModule</title>
<path fill="none" stroke="black" d="M673,-84.91C673,-104.14 673,-131.8 673,-131.8 673,-131.8 1505.25,-131.8 1505.25,-131.8"/>
<polygon fill="black" stroke="black" points="1505.25,-135.3 1515.25,-131.8 1505.25,-128.3 1505.25,-135.3"/>
</g>
<!-- MeuspedidosComponent -->
<g id="node16" class="node">
<title>MeuspedidosComponent</title>
<polygon fill="#ffffb3" stroke="black" points="597.99,-84.8 442.01,-84.8 442.01,-48.8 597.99,-48.8 597.99,-84.8"/>
<text text-anchor="middle" x="520" y="-62.6" font-family="Times,serif" font-size="14.00">MeuspedidosComponent</text>
</g>
<!-- MeuspedidosComponent&#45;&gt;AppModule -->
<g id="edge16" class="edge">
<title>MeuspedidosComponent&#45;&gt;AppModule</title>
<path fill="none" stroke="black" d="M520,-84.93C520,-105.37 520,-135.8 520,-135.8 520,-135.8 1505.06,-135.8 1505.06,-135.8"/>
<polygon fill="black" stroke="black" points="1505.06,-139.3 1515.06,-135.8 1505.06,-132.3 1505.06,-139.3"/>
</g>
<!-- ProdutoComponent -->
<g id="node17" class="node">
<title>ProdutoComponent</title>
<polygon fill="#ffffb3" stroke="black" points="423.67,-84.8 298.33,-84.8 298.33,-48.8 423.67,-48.8 423.67,-84.8"/>
<text text-anchor="middle" x="361" y="-62.6" font-family="Times,serif" font-size="14.00">ProdutoComponent</text>
</g>
<!-- ProdutoComponent&#45;&gt;AppModule -->
<g id="edge17" class="edge">
<title>ProdutoComponent&#45;&gt;AppModule</title>
<path fill="none" stroke="black" d="M361,-84.84C361,-106.46 361,-139.8 361,-139.8 361,-139.8 1505.14,-139.8 1505.14,-139.8"/>
<polygon fill="black" stroke="black" points="1505.14,-143.3 1515.14,-139.8 1505.13,-136.3 1505.14,-143.3"/>
</g>
<!-- RodapeComponent -->
<g id="node18" class="node">
<title>RodapeComponent</title>
<polygon fill="#ffffb3" stroke="black" points="280.1,-84.8 155.9,-84.8 155.9,-48.8 280.1,-48.8 280.1,-84.8"/>
<text text-anchor="middle" x="218" y="-62.6" font-family="Times,serif" font-size="14.00">RodapeComponent</text>
</g>
<!-- RodapeComponent&#45;&gt;AppModule -->
<g id="edge18" class="edge">
<title>RodapeComponent&#45;&gt;AppModule</title>
<path fill="none" stroke="black" d="M218,-84.81C218,-107.29 218,-142.8 218,-142.8 218,-142.8 1505.09,-142.8 1505.09,-142.8"/>
<polygon fill="black" stroke="black" points="1505.09,-146.3 1515.09,-142.8 1505.09,-139.3 1505.09,-146.3"/>
</g>
<!-- SobreComponent -->
<g id="node19" class="node">
<title>SobreComponent</title>
<polygon fill="#ffffb3" stroke="black" points="137.99,-84.8 24.01,-84.8 24.01,-48.8 137.99,-48.8 137.99,-84.8"/>
<text text-anchor="middle" x="81" y="-62.6" font-family="Times,serif" font-size="14.00">SobreComponent</text>
</g>
<!-- SobreComponent&#45;&gt;AppModule -->
<g id="edge19" class="edge">
<title>SobreComponent&#45;&gt;AppModule</title>
<path fill="none" stroke="black" d="M81,-84.95C81,-108.56 81,-146.8 81,-146.8 81,-146.8 1505.2,-146.8 1505.2,-146.8"/>
<polygon fill="black" stroke="black" points="1505.2,-150.3 1515.2,-146.8 1505.2,-143.3 1505.2,-150.3"/>
</g>
<!-- AppComponent  -->
<g id="node22" class="node">
<title>AppComponent </title>
<polygon fill="#80b1d3" stroke="black" points="1611.44,-214.8 1502.56,-214.8 1502.56,-178.8 1611.44,-178.8 1611.44,-214.8"/>
<text text-anchor="middle" x="1557" y="-192.6" font-family="Times,serif" font-size="14.00">AppComponent </text>
</g>
<!-- AppModule&#45;&gt;AppComponent  -->
<g id="edge21" class="edge">
<title>AppModule&#45;&gt;AppComponent </title>
<path fill="none" stroke="black" stroke-dasharray="1,5" d="M1557,-149.91C1557,-149.91 1557,-168.79 1557,-168.79"/>
<polygon fill="black" stroke="black" points="1553.5,-168.79 1557,-178.79 1560.5,-168.79 1553.5,-168.79"/>
</g>
<!-- AppRoutingModule -->
<g id="node21" class="node">
<title>AppRoutingModule</title>
<polygon fill="#8dd3c7" stroke="black" points="3225.28,-84.8 3222.28,-88.8 3201.28,-88.8 3198.28,-84.8 3096.72,-84.8 3096.72,-48.8 3225.28,-48.8 3225.28,-84.8"/>
<text text-anchor="middle" x="3161" y="-62.6" font-family="Times,serif" font-size="14.00">AppRoutingModule</text>
</g>
<!-- AppRoutingModule&#45;&gt;AppModule -->
<g id="edge20" class="edge">
<title>AppRoutingModule&#45;&gt;AppModule</title>
<path fill="none" stroke="black" d="M3161,-84.95C3161,-108.56 3161,-146.8 3161,-146.8 3161,-146.8 1608.67,-146.8 1608.67,-146.8"/>
<polygon fill="black" stroke="black" points="1608.67,-143.3 1598.67,-146.8 1608.67,-150.3 1608.67,-143.3"/>
</g>
</g>
</svg>
